<svg id="Capa_1" enable-background="new 0 0 512.01 512.01" height="512" viewBox="0 0 512.01 512.01" width="512" xmlns="http://www.w3.org/2000/svg"><g><path d="m295.001 192c0-30.327-24.673-55-55-55s-55 24.673-55 55 24.673 55 55 55 55-24.673 55-55zm-80 0c0-13.785 11.215-25 25-25s25 11.215 25 25-11.215 25-25 25-25-11.215-25-25z"/><path d="m462.906 254.355c-.767-6.943-6.367-12.718-13.759-13.298-3.341-.253-3.187-.009-26.116 5.723 36.56-121.995-55-246.78-183.03-246.78-105.318 0-191 86.131-191 192 0 119.582 107.617 208.351 224 188.099v40.096c-30.737-11.97-64 10.85-64 43.805 0 12.496 4.81 24.396 13.544 33.508 18.534 19.334 48.373 19.34 66.912 0 8.734-9.111 13.544-21.012 13.544-33.508v-91.01l130-33.617v48.822c-30.737-11.97-64 10.85-64 43.805 0 25.916 21.084 47 47 47 27.763 0 49.759-24.137 46.716-52.116.182-.934.284-1.896.284-2.884 0-180.105.052-168.299-.095-169.645zm-383.905-62.355c0-89.327 72.224-162 161-162s161 72.673 161 162c0 22.154-4.393 43.495-13.038 63.548-111.316 27.829-103.983 25.945-105.315 26.453-4.87 1.866-8.183 5.98-9.255 10.636-.554 2.413-.392-1.193-.392 56.913-100.526 20.713-194-55.338-194-157.55zm177 290c-9.056 0-17-8.411-17-18 0-9.374 7.626-17 17-17s17 7.626 17 17c0 9.589-7.944 18-17 18zm47-139.997v-34.291c75.682-18.921-99.526 24.882 130-32.5v33.174zm113 106.997c-9.374 0-17-7.626-17-17s7.626-17 17-17 17 7.626 17 17-7.626 17-17 17z"/></g></svg>